<?xml version="1.0" standalone="no"?>
<!DOCTYPE svg PUBLIC "-//W3C//DTD SVG 20010904//EN"
 "http://www.w3.org/TR/2001/REC-SVG-20010904/DTD/svg10.dtd">
<svg version="1.0" xmlns="http://www.w3.org/2000/svg"
 width="160.000000pt" height="160.000000pt" viewBox="0 0 160.000000 160.000000"
 preserveAspectRatio="xMidYMid meet">
<metadata>
Created by potrace 1.14, written by Peter Selinger 2001-2017
</metadata>
<g transform="translate(0.000000,160.000000) scale(0.100000,-0.100000)"
fill="#000000" stroke="none">
<path d="M580 1242 c-20 -27 -29 -30 -96 -36 -93 -9 -213 -48 -281 -93 -138
-91 -206 -231 -157 -324 23 -45 65 -59 128 -44 88 20 171 76 280 189 68 70
216 252 216 267 0 5 -14 9 -31 9 -17 0 -28 4 -24 10 10 16 62 12 69 -6 10 -25
9 -27 -45 -83 -48 -50 -50 -56 -45 -95 14 -111 27 -151 57 -181 l30 -30 19 25
c19 25 29 48 67 145 15 41 25 52 53 61 39 13 312 13 345 0 22 -9 -55 65 -157
150 l-67 55 -169 6 -170 5 -22 -30z m-17 -61 c4 -1 7 -13 7 -28 0 -25 1 -26
20 -8 11 10 17 21 15 25 -3 4 2 10 10 14 8 3 15 3 15 1 0 -11 -140 -176 -205
-242 -161 -164 -306 -221 -355 -140 -53 86 42 237 198 314 71 36 225 74 267
68 11 -2 23 -4 28 -4z m162 -250 c0 -25 -31 -36 -60 -23 -23 11 -25 15 -14 28
15 19 74 15 74 -5z"/>
<path d="M863 1040 c-57 -13 -80 -35 -86 -82 -4 -24 -10 -53 -13 -66 l-6 -22
228 2 c196 3 229 5 228 18 -3 23 -14 83 -20 103 -11 36 -63 51 -184 53 -63 1
-130 -2 -147 -6z"/>
<path d="M1190 1044 c0 -5 7 -18 15 -28 8 -11 15 -28 15 -37 0 -9 21 -56 46
-104 l46 -87 0 -116 c0 -65 -1 -122 -1 -127 -1 -7 -27 -11 -63 -10 -54 0 -63
3 -62 18 1 11 -6 17 -20 18 -23 1 -163 1 -184 0 -7 -1 13 -22 45 -48 32 -26
77 -65 101 -87 108 -101 134 -105 200 -33 86 92 214 243 224 264 18 37 -7 72
-114 164 -94 82 -101 86 -128 76 -21 -8 -32 -8 -44 2 -17 14 -11 41 10 41 8 0
14 3 13 8 -2 11 -99 96 -99 86z"/>
<path d="M740 800 c-13 -9 -9 -15 20 -40 31 -27 35 -28 41 -13 8 21 -12 57
-32 60 -8 2 -21 -2 -29 -7z"/>
<path d="M1191 793 c-18 -16 -19 -21 -8 -43 16 -31 54 -33 73 -5 12 18 11 24
-2 43 -18 27 -35 28 -63 5z"/>
<path d="M865 719 c-4 -11 -4 -23 -1 -26 8 -9 235 -10 248 -2 5 4 7 16 3 28
-6 20 -13 21 -125 21 -111 0 -119 -1 -125 -21z"/>
<path d="M1232 684 c4 -21 22 -23 26 -1 2 10 -3 17 -13 17 -10 0 -15 -6 -13
-16z"/>
</g>
</svg>
